<!--?xml version="1.0" standalone="no"?-->
              <svg id="sw-js-blob-svg" viewBox="0 0 100 100" xmlns="http://www.w3.org/2000/svg" version="1.1">
                    <defs> 
                        <linearGradient id="sw-gradient" x1="0" x2="1" y1="1" y2="0">
                            <stop id="stop1" stop-color="rgba(248, 117, 55, 1)" offset="0%"></stop>
                            <stop id="stop2" stop-color="rgba(251, 168, 31, 1)" offset="100%"></stop>
                        </linearGradient>
                    </defs>
                <path fill="url(#sw-gradient)" d="M24.8,-27.6C32.9,-22.7,40.8,-15.7,42,-7.6C43.2,0.4,37.5,9.4,31.3,16C25,22.6,18.1,26.7,11.1,28.2C4.1,29.7,-2.9,28.6,-11.4,27.3C-19.8,26,-29.7,24.4,-33.8,18.8C-37.9,13.2,-36.3,3.5,-33.1,-4.3C-29.8,-12,-24.9,-17.9,-19.1,-23.3C-13.3,-28.6,-6.7,-33.3,0.8,-34.3C8.3,-35.3,16.7,-32.5,24.8,-27.6Z" width="100%" height="100%" transform="translate(50 50)" stroke-width="0" style="transition: all 0.3s ease 0s;"></path>
              </svg>