<!--?xml version="1.0" standalone="no"?-->
              <svg id="sw-js-blob-svg" viewBox="0 0 100 100" xmlns="http://www.w3.org/2000/svg" version="1.1">
                    <defs> 
                        <linearGradient id="sw-gradient" x1="0" x2="1" y1="1" y2="0">
                            <stop id="stop1" stop-color="rgba(248, 117, 55, 1)" offset="0%"></stop>
                            <stop id="stop2" stop-color="rgba(251, 168, 31, 1)" offset="100%"></stop>
                        </linearGradient>
                    </defs>
                <path fill="url(#sw-gradient)" d="M27,-31.1C33.6,-26.6,36.6,-16.8,36,-8.2C35.4,0.5,31.1,8,26.1,13.7C21.2,19.5,15.6,23.5,9.4,25.8C3.1,28.1,-3.8,28.7,-12,27.9C-20.2,27.1,-29.8,24.9,-34.1,19C-38.4,13,-37.4,3.3,-34.5,-4.8C-31.6,-12.9,-26.7,-19.4,-20.6,-24C-14.5,-28.5,-7.3,-31.1,1.5,-32.9C10.2,-34.6,20.4,-35.5,27,-31.1Z" width="100%" height="100%" transform="translate(50 50)" stroke-width="0" style="transition: all 0.3s ease 0s;"></path>
              </svg>