<!--?xml version="1.0" standalone="no"?-->
              <svg id="sw-js-blob-svg" viewBox="0 0 100 100" xmlns="http://www.w3.org/2000/svg" version="1.1">
                    <defs> 
                        <linearGradient id="sw-gradient" x1="0" x2="1" y1="1" y2="0">
                            <stop id="stop1" stop-color="rgba(248, 117, 55, 1)" offset="0%"></stop>
                            <stop id="stop2" stop-color="rgba(251, 168, 31, 1)" offset="100%"></stop>
                        </linearGradient>
                    </defs>
                <path fill="url(#sw-gradient)" d="M25,-29C32.5,-23.5,38.8,-15.7,39.8,-7.4C40.8,0.9,36.5,9.7,31.3,17.4C26.1,25.2,20,31.7,12.2,35.5C4.3,39.2,-5.3,40.2,-13.9,37.4C-22.6,34.7,-30.2,28.2,-34,20.3C-37.8,12.3,-37.8,2.8,-35.3,-5.4C-32.9,-13.7,-28.1,-20.7,-21.8,-26.4C-15.5,-32.1,-7.8,-36.5,0.5,-37.1C8.8,-37.7,17.5,-34.5,25,-29Z" width="100%" height="100%" transform="translate(50 50)" stroke-width="0" style="transition: all 0.3s ease 0s;"></path>
              </svg>